<svg id="Artwork" xmlns="http://www.w3.org/2000/svg" viewBox="0 0 626 231">
  <defs>
    <style>
      .cls-1 {
        fill: #fff;
      }
    </style>
  </defs>
  <g>
    <rect class="cls-1" x="295.95" y="22.77" width="27.11" height="183.93" rx="3"/>
    <path class="cls-1" d="M585.93,87.47c-11.68-11.8-25.24-14.77-38.55-14.77s-26.86,3-38.54,14.77c-8.38,8.47-14,19.47-14,33.44V202a3,3,0,0,0,3,3H517.9a3,3,0,0,0,3-3V125.91c0-20,11.51-28.92,26.1-28.92h.77c14.59,0,26.1,9,26.1,28.92V202a3,3,0,0,0,3,3H597a3,3,0,0,0,3-3V120.91C600,106.94,594.31,95.94,585.93,87.47Z"/>
    <path class="cls-1" d="M408.39,72.71A67.76,67.76,0,1,0,452,192.28V202a3,3,0,0,0,3,3h18.11a3,3,0,0,0,3-3V140.48h0A67.76,67.76,0,0,0,408.39,72.71Zm0,110.52a42.76,42.76,0,1,1,42.76-42.76A42.81,42.81,0,0,1,408.39,183.23Z"/>
    <path class="cls-1" d="M222.91,22.77H156.8a3,3,0,0,0-3,3V202a3,3,0,0,0,3,3h21.65a3,3,0,0,0,3-3V133.08h41.46c35.57,0,58.35-23.29,58.35-55S258.48,22.77,222.91,22.77Zm-1.54,85.48H181.45V47.59h39.92c19.45,0,32.25,11,32.25,30.46C253.62,97.25,240.82,108.25,221.37,108.25Z"/>
    <g>
      <path class="cls-1" d="M117.16,87.47C105.48,75.67,91.92,72.7,78.62,72.7s-26.87,3-38.55,14.77a46.55,46.55,0,0,0-13.75,28,50.34,50.34,0,0,0-.3,5.42v6.62a2,2,0,0,0,.34,1.11l6.37,9.54a.51.51,0,0,0,.42.22H51.63a.51.51,0,0,0,.5-.5v-12h0c0-20,11.51-28.91,26.1-28.91H79c14.59,0,26.1,9,26.1,28.92V202a3,3,0,0,0,3,3h20.11a3,3,0,0,0,3-3V120.91C131.21,106.94,125.54,95.94,117.16,87.47Z"/>
      <path class="cls-1" d="M26,135v9.58a.54.54,0,0,0,.08.28l6.63,9.92a.51.51,0,0,0,.42.22H51.63a.5.5,0,0,0,.5-.5V144.15a.51.51,0,0,0-.5-.5H33.15a.51.51,0,0,1-.42-.22l-5.79-8.67A.5.5,0,0,0,26,135Z"/>
      <path class="cls-1" d="M26,185v9.13a2,2,0,0,0,.34,1.11l6.37,9.54a.51.51,0,0,0,.42.22H51.63a.5.5,0,0,0,.5-.5V194.11a.5.5,0,0,0-.5-.5H33.15a.51.51,0,0,1-.42-.22l-5.79-8.68A.5.5,0,0,0,26,185Z"/>
      <path class="cls-1" d="M26,168.34v9.59a.53.53,0,0,0,.08.27l6.63,9.92a.51.51,0,0,0,.42.22H51.63a.5.5,0,0,0,.5-.5V177.46a.5.5,0,0,0-.5-.5H33.15a.52.52,0,0,1-.42-.23l-5.79-8.67A.5.5,0,0,0,26,168.34Z"/>
      <path class="cls-1" d="M26,151.69v9.58a.54.54,0,0,0,.08.28l6.63,9.92a.51.51,0,0,0,.42.22H51.63a.5.5,0,0,0,.5-.5V160.81a.5.5,0,0,0-.5-.5H33.15a.52.52,0,0,1-.42-.23l-5.79-8.67A.5.5,0,0,0,26,151.69Z"/>
    </g>
  </g>
</svg>
